solid 
 facet normal  0.000000e+00  0.000000e+00 -1.000000e+00
   outer loop
     vertex  2.280000e+01 -6.450000e+00 -1.684545e+01
     vertex  2.970000e+01 -8.350000e+00 -1.684545e+01
     vertex  2.280000e+01 -8.350000e+00 -1.684545e+01
   endloop
 endfacet
 facet normal  5.148860e-16  1.869849e-15 -1.000000e+00
   outer loop
     vertex  2.280000e+01 -6.450000e+00 -1.684545e+01
     vertex  2.970000e+01 -6.450000e+00 -1.684545e+01
     vertex  2.970000e+01 -8.350000e+00 -1.684545e+01
   endloop
 endfacet
 facet normal  1.354963e-16 -8.660254e-01 -5.000000e-01
   outer loop
     vertex  2.280000e+01 -8.350000e+00 -1.684545e+01
     vertex  2.970000e+01 -9.300000e+00 -1.520000e+01
     vertex  2.280000e+01 -9.300000e+00 -1.520000e+01
   endloop
 endfacet
 facet normal  0.000000e+00 -8.660254e-01 -5.000000e-01
   outer loop
     vertex  2.280000e+01 -8.350000e+00 -1.684545e+01
     vertex  2.970000e+01 -8.350000e+00 -1.684545e+01
     vertex  2.970000e+01 -9.300000e+00 -1.520000e+01
   endloop
 endfacet
 facet normal -7.071068e-01 -0.000000e+00 -7.071068e-01
   outer loop
     vertex  2.250000e+01 -6.623205e+00 -1.654545e+01
     vertex  2.280000e+01 -8.350000e+00 -1.684545e+01
     vertex  2.250000e+01 -8.176795e+00 -1.654545e+01
   endloop
 endfacet
 facet normal -7.071068e-01  0.000000e+00 -7.071068e-01
   outer loop
     vertex  2.250000e+01 -6.623205e+00 -1.654545e+01
     vertex  2.280000e+01 -6.450000e+00 -1.684545e+01
     vertex  2.280000e+01 -8.350000e+00 -1.684545e+01
   endloop
 endfacet
 facet normal  7.071068e-01  0.000000e+00 -7.071068e-01
   outer loop
     vertex  3.000000e+01 -6.623205e+00 -1.654545e+01
     vertex  3.000000e+01 -8.176795e+00 -1.654545e+01
     vertex  2.970000e+01 -8.350000e+00 -1.684545e+01
   endloop
 endfacet
 facet normal  7.071068e-01  1.325626e-15 -7.071068e-01
   outer loop
     vertex  3.000000e+01 -6.623205e+00 -1.654545e+01
     vertex  2.970000e+01 -8.350000e+00 -1.684545e+01
     vertex  2.970000e+01 -6.450000e+00 -1.684545e+01
   endloop
 endfacet
 facet normal  4.911742e-16  8.660254e-01 -5.000000e-01
   outer loop
     vertex  2.280000e+01 -5.500000e+00 -1.520000e+01
     vertex  2.970000e+01 -6.450000e+00 -1.684545e+01
     vertex  2.280000e+01 -6.450000e+00 -1.684545e+01
   endloop
 endfacet
 facet normal  1.287215e-16  8.660254e-01 -5.000000e-01
   outer loop
     vertex  2.280000e+01 -5.500000e+00 -1.520000e+01
     vertex  2.970000e+01 -5.500000e+00 -1.520000e+01
     vertex  2.970000e+01 -6.450000e+00 -1.684545e+01
   endloop
 endfacet
 facet normal -1.185593e-16 -8.660254e-01  5.000000e-01
   outer loop
     vertex  2.280000e+01 -9.300000e+00 -1.520000e+01
     vertex  2.970000e+01 -8.350000e+00 -1.355455e+01
     vertex  2.280000e+01 -8.350000e+00 -1.355455e+01
   endloop
 endfacet
 facet normal -1.287215e-16 -8.660254e-01  5.000000e-01
   outer loop
     vertex  2.280000e+01 -9.300000e+00 -1.520000e+01
     vertex  2.970000e+01 -9.300000e+00 -1.520000e+01
     vertex  2.970000e+01 -8.350000e+00 -1.355455e+01
   endloop
 endfacet
 facet normal -7.071068e-01 -6.123724e-01 -3.535534e-01
   outer loop
     vertex  2.250000e+01 -8.176795e+00 -1.654545e+01
     vertex  2.280000e+01 -9.300000e+00 -1.520000e+01
     vertex  2.250000e+01 -8.953590e+00 -1.520000e+01
   endloop
 endfacet
 facet normal -7.071068e-01 -6.123724e-01 -3.535534e-01
   outer loop
     vertex  2.250000e+01 -8.176795e+00 -1.654545e+01
     vertex  2.280000e+01 -8.350000e+00 -1.684545e+01
     vertex  2.280000e+01 -9.300000e+00 -1.520000e+01
   endloop
 endfacet
 facet normal  7.071068e-01 -6.123724e-01 -3.535534e-01
   outer loop
     vertex  3.000000e+01 -8.176795e+00 -1.654545e+01
     vertex  3.000000e+01 -8.953590e+00 -1.520000e+01
     vertex  2.970000e+01 -9.300000e+00 -1.520000e+01
   endloop
 endfacet
 facet normal  7.071068e-01 -6.123724e-01 -3.535534e-01
   outer loop
     vertex  3.000000e+01 -8.176795e+00 -1.654545e+01
     vertex  2.970000e+01 -9.300000e+00 -1.520000e+01
     vertex  2.970000e+01 -8.350000e+00 -1.684545e+01
   endloop
 endfacet
 facet normal -1.000000e+00  0.000000e+00  0.000000e+00
   outer loop
     vertex  2.250000e+01 -6.623205e+00 -1.654545e+01
     vertex  2.250000e+01 -8.953590e+00 -1.520000e+01
     vertex  2.250000e+01 -8.176795e+00 -1.385455e+01
   endloop
 endfacet
 facet normal -1.000000e+00  0.000000e+00  0.000000e+00
   outer loop
     vertex  2.250000e+01 -6.623205e+00 -1.654545e+01
     vertex  2.250000e+01 -8.176795e+00 -1.654545e+01
     vertex  2.250000e+01 -8.953590e+00 -1.520000e+01
   endloop
 endfacet
 facet normal -1.000000e+00  0.000000e+00  0.000000e+00
   outer loop
     vertex  2.250000e+01 -5.846410e+00 -1.520000e+01
     vertex  2.250000e+01 -8.176795e+00 -1.385455e+01
     vertex  2.250000e+01 -6.623205e+00 -1.385455e+01
   endloop
 endfacet
 facet normal -1.000000e+00 -0.000000e+00  0.000000e+00
   outer loop
     vertex  2.250000e+01 -5.846410e+00 -1.520000e+01
     vertex  2.250000e+01 -6.623205e+00 -1.654545e+01
     vertex  2.250000e+01 -8.176795e+00 -1.385455e+01
   endloop
 endfacet
 facet normal -7.071068e-01  6.123724e-01 -3.535534e-01
   outer loop
     vertex  2.250000e+01 -5.846410e+00 -1.520000e+01
     vertex  2.280000e+01 -6.450000e+00 -1.684545e+01
     vertex  2.250000e+01 -6.623205e+00 -1.654545e+01
   endloop
 endfacet
 facet normal -7.071068e-01  6.123724e-01 -3.535534e-01
   outer loop
     vertex  2.250000e+01 -5.846410e+00 -1.520000e+01
     vertex  2.280000e+01 -5.500000e+00 -1.520000e+01
     vertex  2.280000e+01 -6.450000e+00 -1.684545e+01
   endloop
 endfacet
 facet normal  1.000000e+00  0.000000e+00  0.000000e+00
   outer loop
     vertex  3.000000e+01 -6.623205e+00 -1.654545e+01
     vertex  3.000000e+01 -8.176795e+00 -1.385455e+01
     vertex  3.000000e+01 -8.953590e+00 -1.520000e+01
   endloop
 endfacet
 facet normal  1.000000e+00  0.000000e+00  0.000000e+00
   outer loop
     vertex  3.000000e+01 -6.623205e+00 -1.654545e+01
     vertex  3.000000e+01 -8.953590e+00 -1.520000e+01
     vertex  3.000000e+01 -8.176795e+00 -1.654545e+01
   endloop
 endfacet
 facet normal  1.000000e+00  0.000000e+00  0.000000e+00
   outer loop
     vertex  3.000000e+01 -5.846410e+00 -1.520000e+01
     vertex  3.000000e+01 -6.623205e+00 -1.385455e+01
     vertex  3.000000e+01 -8.176795e+00 -1.385455e+01
   endloop
 endfacet
 facet normal  1.000000e+00  0.000000e+00  0.000000e+00
   outer loop
     vertex  3.000000e+01 -5.846410e+00 -1.520000e+01
     vertex  3.000000e+01 -8.176795e+00 -1.385455e+01
     vertex  3.000000e+01 -6.623205e+00 -1.654545e+01
   endloop
 endfacet
 facet normal  7.071068e-01  6.123724e-01 -3.535534e-01
   outer loop
     vertex  3.000000e+01 -5.846410e+00 -1.520000e+01
     vertex  3.000000e+01 -6.623205e+00 -1.654545e+01
     vertex  2.970000e+01 -6.450000e+00 -1.684545e+01
   endloop
 endfacet
 facet normal  7.071068e-01  6.123724e-01 -3.535534e-01
   outer loop
     vertex  3.000000e+01 -5.846410e+00 -1.520000e+01
     vertex  2.970000e+01 -6.450000e+00 -1.684545e+01
     vertex  2.970000e+01 -5.500000e+00 -1.520000e+01
   endloop
 endfacet
 facet normal -1.354963e-16  8.660254e-01  5.000000e-01
   outer loop
     vertex  2.280000e+01 -6.450000e+00 -1.355455e+01
     vertex  2.970000e+01 -5.500000e+00 -1.520000e+01
     vertex  2.280000e+01 -5.500000e+00 -1.520000e+01
   endloop
 endfacet
 facet normal  2.057068e-16  8.660254e-01  5.000000e-01
   outer loop
     vertex  2.280000e+01 -6.450000e+00 -1.355455e+01
     vertex  2.970000e+01 -6.450000e+00 -1.355455e+01
     vertex  2.970000e+01 -5.500000e+00 -1.520000e+01
   endloop
 endfacet
 facet normal -2.574430e-16 -9.349247e-16  1.000000e+00
   outer loop
     vertex  2.280000e+01 -8.350000e+00 -1.355455e+01
     vertex  2.970000e+01 -6.450000e+00 -1.355455e+01
     vertex  2.280000e+01 -6.450000e+00 -1.355455e+01
   endloop
 endfacet
 facet normal -2.574430e-16 -9.349247e-16  1.000000e+00
   outer loop
     vertex  2.280000e+01 -8.350000e+00 -1.355455e+01
     vertex  2.970000e+01 -8.350000e+00 -1.355455e+01
     vertex  2.970000e+01 -6.450000e+00 -1.355455e+01
   endloop
 endfacet
 facet normal -7.071068e-01 -6.123724e-01  3.535534e-01
   outer loop
     vertex  2.250000e+01 -8.953590e+00 -1.520000e+01
     vertex  2.280000e+01 -8.350000e+00 -1.355455e+01
     vertex  2.250000e+01 -8.176795e+00 -1.385455e+01
   endloop
 endfacet
 facet normal -7.071068e-01 -6.123724e-01  3.535534e-01
   outer loop
     vertex  2.250000e+01 -8.953590e+00 -1.520000e+01
     vertex  2.280000e+01 -9.300000e+00 -1.520000e+01
     vertex  2.280000e+01 -8.350000e+00 -1.355455e+01
   endloop
 endfacet
 facet normal  7.071068e-01 -6.123724e-01  3.535534e-01
   outer loop
     vertex  3.000000e+01 -8.953590e+00 -1.520000e+01
     vertex  3.000000e+01 -8.176795e+00 -1.385455e+01
     vertex  2.970000e+01 -8.350000e+00 -1.355455e+01
   endloop
 endfacet
 facet normal  7.071068e-01 -6.123724e-01  3.535534e-01
   outer loop
     vertex  3.000000e+01 -8.953590e+00 -1.520000e+01
     vertex  2.970000e+01 -8.350000e+00 -1.355455e+01
     vertex  2.970000e+01 -9.300000e+00 -1.520000e+01
   endloop
 endfacet
 facet normal -7.071068e-01  6.123724e-01  3.535534e-01
   outer loop
     vertex  2.250000e+01 -6.623205e+00 -1.385455e+01
     vertex  2.280000e+01 -5.500000e+00 -1.520000e+01
     vertex  2.250000e+01 -5.846410e+00 -1.520000e+01
   endloop
 endfacet
 facet normal -7.071068e-01  6.123724e-01  3.535534e-01
   outer loop
     vertex  2.250000e+01 -6.623205e+00 -1.385455e+01
     vertex  2.280000e+01 -6.450000e+00 -1.355455e+01
     vertex  2.280000e+01 -5.500000e+00 -1.520000e+01
   endloop
 endfacet
 facet normal -7.071068e-01 -8.084978e-16  7.071068e-01
   outer loop
     vertex  2.250000e+01 -8.176795e+00 -1.385455e+01
     vertex  2.280000e+01 -6.450000e+00 -1.355455e+01
     vertex  2.250000e+01 -6.623205e+00 -1.385455e+01
   endloop
 endfacet
 facet normal -7.071068e-01 -6.542052e-16  7.071068e-01
   outer loop
     vertex  2.250000e+01 -8.176795e+00 -1.385455e+01
     vertex  2.280000e+01 -8.350000e+00 -1.355455e+01
     vertex  2.280000e+01 -6.450000e+00 -1.355455e+01
   endloop
 endfacet
 facet normal  7.071068e-01  6.123724e-01  3.535534e-01
   outer loop
     vertex  3.000000e+01 -6.623205e+00 -1.385455e+01
     vertex  3.000000e+01 -5.846410e+00 -1.520000e+01
     vertex  2.970000e+01 -5.500000e+00 -1.520000e+01
   endloop
 endfacet
 facet normal  7.071068e-01  6.123724e-01  3.535534e-01
   outer loop
     vertex  3.000000e+01 -6.623205e+00 -1.385455e+01
     vertex  2.970000e+01 -5.500000e+00 -1.520000e+01
     vertex  2.970000e+01 -6.450000e+00 -1.355455e+01
   endloop
 endfacet
 facet normal  7.071068e-01 -8.084978e-16  7.071068e-01
   outer loop
     vertex  3.000000e+01 -8.176795e+00 -1.385455e+01
     vertex  3.000000e+01 -6.623205e+00 -1.385455e+01
     vertex  2.970000e+01 -6.450000e+00 -1.355455e+01
   endloop
 endfacet
 facet normal  7.071068e-01 -6.542052e-16  7.071068e-01
   outer loop
     vertex  3.000000e+01 -8.176795e+00 -1.385455e+01
     vertex  2.970000e+01 -6.450000e+00 -1.355455e+01
     vertex  2.970000e+01 -8.350000e+00 -1.355455e+01
   endloop
 endfacet
endsolid
